<svg xmlns="http://www.w3.org/2000/svg" viewBox="0 0 122.88 122.88"><path d="M17.89 0h88.9c8.85 0 16.1 7.24 16.1 16.1v90.68c0 8.85-7.24 16.1-16.1 16.1H16.1c-8.85 0-16.1-7.24-16.1-16.1v-88.9C0 8.05 8.05 0 17.89 0zm13.68 91.82V31.06h31.29c5.8 0 10.24.49 13.29 1.5 3.07.99 5.54 2.84 7.43 5.53 1.88 2.7 2.81 6 2.81 9.87 0 3.37-.72 6.28-2.16 8.73-1.43 2.46-3.41 4.44-5.94 5.97-1.6.96-3.8 1.77-6.59 2.4 2.23.75 3.86 1.49 4.88 2.23.68.49 1.68 1.57 3 3.2 1.3 1.63 2.18 2.89 2.62 3.78l9.12 17.55H70.1L60.07 73.29c-1.27-2.4-2.4-3.96-3.39-4.68-1.36-.93-2.9-1.4-4.61-1.4h-1.65v24.61H31.57zm18.84-36.07h7.93c.85 0 2.52-.28 4.98-.83 1.24-.24 2.26-.88 3.04-1.91.79-1.03 1.19-2.21 1.19-3.54 0-1.97-.62-3.48-1.87-4.53-1.24-1.06-3.58-1.58-7.02-1.58H50.4v12.39h.01z" fill-rule="evenodd" clip-rule="evenodd"/></svg>